<svg fill="none" height="1024" viewBox="0 0 1024 1024" width="1024"
    xmlns="http://www.w3.org/2000/svg">
    <rect fill="white" height="1024" width="1024" />
    <g clip-path="url(#clip0_1415_77088)">
        <path clip-rule="evenodd"
            d="M583.019 630.713C586.148 627.944 587.737 624.14 587.737 619.612V412.731L601.026 388H558.473V609.764H536.052V388H505.994V609.764H483.27V388H440.203L453.796 412.731V619.876C453.796 624.646 455.08 627.922 458.747 630.713C462.133 633.989 465.496 635.022 470.471 635.022H570.524C575.709 635 579.376 633.989 583.019 630.713Z"
            fill="#020303" fill-rule="evenodd" />
        <path clip-rule="evenodd"
            d="M279.591 635H336.53L322.937 609.764V388H279.591L292.926 412.731V609.764L279.591 635Z"
            fill="#020303" fill-rule="evenodd" />
        <path clip-rule="evenodd"
            d="M747.018 609.764V495.496H769.485V609.764H747.018ZM716.983 412.731V609.764L703.391 635H781.98C787.492 635 790.598 633.989 794.779 630.691C797.908 627.922 799.496 624.646 799.496 619.854V485.384C799.496 480.614 797.908 477.339 794.779 474.283C790.598 471.007 787.492 470.26 781.98 470.26H746.994V388H703.414L716.983 412.731Z"
            fill="#020303" fill-rule="evenodd" />
        <path clip-rule="evenodd"
            d="M663.477 495.497H641.523V537.616H663.477V495.497ZM693.745 562.83H641.523V609.764H663.477L690.615 583.538V635H628.444C622.979 635 619.827 633.989 615.903 630.691C612.516 627.922 610.952 624.646 610.952 619.854V485.384C610.952 480.614 612.54 477.339 615.903 474.283C619.827 471.008 622.979 470.26 628.444 470.26H676.229C681.484 470.26 684.847 471.008 688.77 474.283C691.9 477.339 693.722 480.614 693.722 485.384V562.83H693.745Z"
            fill="#020303" fill-rule="evenodd" />
        <path clip-rule="evenodd"
            d="M238.065 495.497V609.764L224.753 635H281.692L268.123 609.764V470.26H224.753L238.065 495.497Z"
            fill="#020303" fill-rule="evenodd" />
        <path clip-rule="evenodd"
            d="M376.467 609.764H398.421V562.83H376.467V609.764ZM346.199 552.52C346.199 547.706 348.044 544.43 350.917 541.661C355.097 538.143 358.46 537.638 363.435 537.638H398.444V495.497H376.49L349.352 517.194V470.26H411.5C416.708 470.26 420.094 471.008 423.761 474.283C427.428 477.339 428.969 480.614 428.969 485.384V609.764L441.768 635H361.894C357.176 635 354.046 633.747 350.94 630.691C347.787 626.669 346.222 623.613 346.222 618.843V552.52H346.199Z"
            fill="#020303" fill-rule="evenodd" />
        <path clip-rule="evenodd"
            d="M191.076 388L172.275 579.01L153.474 388H113L126.289 412.731L151.139 635H194.205L217.957 412.731L231.55 388H191.076Z"
            fill="#020303" fill-rule="evenodd" />
        <path d="M268.125 418.007H238.067V447.046H268.125V418.007Z" fill="#020303" />
        <path clip-rule="evenodd"
            d="M890.862 461.423C891.937 460.654 892.194 459.664 892.194 458.367V402.619L895.814 395.826H884.346V455.619H876.265V395.826H868.138V455.619H860.057V395.826H848.59L852.21 402.619V458.389C852.21 459.664 852.49 460.654 853.541 461.445C854.592 462.192 855.386 462.698 856.671 462.698H887.476C889.064 462.676 889.835 462.17 890.862 461.423ZM815.426 395.298C815.426 391.275 818.835 388 822.759 388H921.434C925.638 388 929.024 391.275 929.024 395.298V463.182C929.024 467.204 925.638 470.48 921.434 470.48H822.759C818.835 470.48 815.426 467.204 815.426 463.182V395.298Z"
            fill="#020303" fill-rule="evenodd" />
    </g>
    <defs>
        <clipPath id="clip0_1415_77088">
            <rect fill="white" height="247" transform="translate(113 388)" width="816" />
        </clipPath>
    </defs>
</svg>