<?xml version="1.0" encoding="UTF-8" standalone="no"?><!-- Created with Inkscape (http://www.inkscape.org/) -->

<svg xmlns:cc="http://creativecommons.org/ns#" xmlns:dc="http://purl.org/dc/elements/1.1/"
    xmlns:inkscape="http://www.inkscape.org/namespaces/inkscape"
    xmlns:rdf="http://www.w3.org/1999/02/22-rdf-syntax-ns#"
    xmlns:sodipodi="http://sodipodi.sourceforge.net/DTD/sodipodi-0.dtd" height="512" id="svg5"
    version="1.1" viewBox="0 0 512 512" width="512" xmlns="http://www.w3.org/2000/svg"
    inkscape:version="1.1.2 (b8e25be833, 2022-02-05)" sodipodi:docname="icon-simple-svg.svg">
  <sodipodi:namedview bordercolor="#eeeeee" borderopacity="1" id="namedview11" pagecolor="#505050"
      showgrid="false" inkscape:current-layer="g1070" inkscape:cx="255.6792" inkscape:cy="256.3208"
      inkscape:pagecheckerboard="0" inkscape:pageopacity="0" inkscape:pageshadow="0"
      inkscape:window-height="991" inkscape:window-maximized="1" inkscape:window-width="1920"
      inkscape:window-x="-9" inkscape:window-y="-9" inkscape:zoom="1.5585938" />
  <title id="title3368">Icona Paraulògic</title>
  <defs id="defs2" />
  <g id="layer1">
    <g id="g1070" transform="translate(5.9998429)">
      <path
          style="fill:none;stroke:#000000;stroke-width:20;stroke-linecap:round;stroke-linejoin:round;stroke-miterlimit:4;stroke-dasharray:none;stroke-opacity:1"
          d="m 250.00001,480 c -16.1,0 -191.135849,-101.05699 -199.18585,-114.99999 -8.05,-13.94301 -8.050006,-216.057 -6e-6,-230 C 58.864154,121.057 233.89999,20 249.99999,20 c 16.1,0 191.13585,101.05699 199.18585,114.99999 8.05,13.94301 8.05001,216.057 1e-5,230 C 441.13585,378.943 266.10001,480 250.00001,480 Z"
          id="path389" />
      <g style="font-size:229.446px;line-height:1.25;stroke-width:1.07553" aria-label="P"
          id="text2572">
        <path style="font-family:Kanit;-inkscape-font-specification:Kanit"
            d="M 189.99987,323.88174 V 176.11852 h 69.29269 q 17.4379,0 28.45131,6.65393 11.24285,6.65394 16.74955,18.12624 5.50671,11.4723 5.50671,26.15684 0,14.91399 -6.42449,26.38629 -6.19504,11.4723 -17.89679,17.89679 -11.4723,6.19504 -27.30407,6.19504 h -37.3997 v 46.34809 z m 30.97521,-70.89881 h 30.97521 q 13.30787,0 19.9618,-6.88338 6.88338,-7.11283 6.88338,-19.04402 0,-12.84897 -6.42449,-19.50291 -6.42448,-6.88338 -19.27346,-6.88338 h -32.12244 z"
            id="path828" />
      </g>
    </g>
  </g>
  <metadata id="metadata3366">
    <rdf:RDF>
      <cc:Work rdf:about="">
        <dc:title>Icona Paraulògic</dc:title>
      </cc:Work>
    </rdf:RDF>
  </metadata>
</svg>
